<?xml version="1.0" standalone="no"?>
<!DOCTYPE svg PUBLIC "-//W3C//DTD SVG 20010904//EN"
 "http://www.w3.org/TR/2001/REC-SVG-20010904/DTD/svg10.dtd">
<svg version="1.0" xmlns="http://www.w3.org/2000/svg"
 width="906.000000pt"  height="845.000000pt" viewBox="0 0 906.000000 845.000000"
 preserveAspectRatio="xMidYMid meet">

<g transform="translate(0.000000,845.000000) scale(0.100000,-0.100000)"
fill="#44F814" stroke="none">
<path d="M4200 8254 c-25 -2 -108 -11 -185 -19 -1179 -128 -2250 -778 -2913
-1767 -589 -879 -808 -1955 -611 -2998 202 -1062 831 -2008 1733 -2605 544
-360 1124 -570 1796 -652 203 -25 677 -25 880 0 672 82 1253 293 1795 652
1423 942 2098 2680 1685 4335 -239 958 -821 1796 -1635 2352 -548 375 -1158
602 -1835 684 -128 15 -604 27 -710 18z m-695 -2099 c59 -40 123 -116 143
-170 42 -110 54 -334 27 -500 -20 -123 -57 -270 -99 -394 -28 -81 -33 -108
-25 -123 16 -29 3 -65 -32 -90 -21 -15 -46 -53 -74 -115 -90 -191 -239 -432
-375 -603 -150 -189 -449 -471 -597 -563 -116 -72 -249 -86 -303 -31 -42 42
-57 107 -41 179 19 83 101 241 185 352 235 316 572 603 983 842 40 23 77 49
82 59 21 39 81 235 105 344 38 169 50 309 37 428 -13 116 -35 174 -85 217 -82
73 -230 53 -451 -59 -138 -70 -231 -136 -352 -252 -163 -155 -273 -316 -307
-449 -11 -44 -11 -56 0 -79 36 -70 -1 -138 -76 -138 -86 0 -126 66 -118 195
16 250 368 654 748 858 189 102 313 137 467 134 100 -2 102 -3 158 -42z m1223
-30 c36 -30 48 -74 31 -107 -7 -13 -39 -54 -72 -93 -199 -236 -493 -802 -643
-1238 -59 -172 -114 -385 -121 -469 -11 -127 -15 -132 377 443 252 369 513
696 682 853 178 165 287 187 372 72 33 -44 32 -154 -3 -433 -51 -404 -51 -588
0 -741 42 -127 113 -188 214 -185 250 7 568 308 793 749 175 346 264 642 295
988 13 134 16 151 37 168 31 25 83 23 116 -5 25 -22 26 -28 25 -107 -2 -147
-64 -441 -140 -670 -145 -432 -420 -884 -660 -1085 -93 -78 -225 -158 -309
-187 -100 -34 -226 -33 -304 4 -128 59 -217 187 -252 361 -23 111 -22 393 3
637 31 298 35 380 23 380 -6 0 -43 -30 -84 -66 -223 -200 -426 -459 -784 -999
-107 -163 -222 -324 -255 -359 -69 -75 -128 -106 -198 -106 -43 0 -52 4 -80
35 -16 19 -35 54 -42 77 -56 208 184 931 516 1548 135 252 238 415 318 507 52
59 98 68 145 28z m-1420 -3347 c8 -8 12 -65 12 -192 0 -199 -7 -229 -62 -270
-39 -28 -134 -34 -182 -11 -43 20 -76 76 -76 128 0 38 15 57 46 57 27 0 42
-18 50 -59 9 -43 46 -68 80 -53 38 18 44 50 44 226 0 174 3 186 50 186 14 0
31 -5 38 -12z m960 0 c8 -8 12 -52 12 -132 l0 -120 64 63 c53 52 68 62 92 59
46 -5 44 -42 -5 -92 l-40 -41 54 -84 c30 -46 55 -91 55 -100 0 -24 -20 -41
-47 -41 -18 0 -35 18 -74 80 -28 44 -54 80 -57 80 -3 0 -14 -7 -24 -17 -13
-11 -18 -30 -18 -68 0 -55 -12 -75 -45 -75 -43 0 -45 13 -45 250 0 237 2 250
45 250 12 0 26 -5 33 -12z m349 -10 c6 -13 23 -81 38 -153 15 -71 31 -134 35
-138 4 -4 23 56 43 134 20 78 44 150 53 160 25 27 80 25 98 -3 8 -13 31 -87
52 -166 20 -78 38 -141 39 -140 2 2 17 68 35 148 18 80 37 153 42 163 12 23
66 20 82 -5 14 -23 -87 -439 -113 -462 -23 -21 -64 -20 -84 2 -8 9 -35 90 -59
180 l-44 163 -43 -158 c-50 -187 -59 -203 -106 -203 -46 0 -52 14 -110 247
-48 194 -52 222 -33 241 21 21 64 14 75 -10z m1023 3 c5 -11 10 -51 10 -90 l0
-71 33 20 c73 45 172 15 207 -63 39 -84 22 -185 -40 -241 -34 -30 -47 -36 -86
-36 -30 0 -59 8 -80 20 l-33 21 -11 -21 c-13 -25 -65 -28 -74 -4 -8 21 -8 469
1 477 14 15 63 7 73 -12z m-1970 -136 c16 -8 35 -25 41 -38 17 -30 30 -278 17
-294 -16 -19 -45 -16 -67 8 l-20 21 -44 -21 c-116 -56 -231 10 -197 114 13 38
38 56 108 74 23 6 60 16 82 21 49 13 56 45 13 61 -38 14 -82 4 -114 -27 -33
-32 -72 -30 -77 4 -4 27 11 48 53 74 39 23 162 25 205 3z m383 4 c63 -32 94
-88 65 -117 -20 -20 -38 -14 -79 23 -48 43 -81 45 -120 6 -61 -62 -26 -175 55
-175 30 0 44 7 72 37 41 43 70 47 86 12 10 -21 8 -30 -8 -52 -42 -56 -69 -68
-154 -68 -64 0 -84 4 -107 21 -47 35 -68 82 -68 150 0 72 32 130 86 157 39 19
140 22 172 6z m1367 -8 c39 -20 80 -83 80 -123 0 -50 -20 -58 -142 -58 l-110
0 7 -27 c20 -80 93 -90 175 -23 47 38 81 -5 45 -56 -51 -74 -231 -70 -285 5
-65 92 -38 240 52 284 45 23 135 22 178 -2z m-1713 -683 c106 -70 125 -280 34
-381 -52 -58 -82 -67 -215 -67 -91 0 -118 3 -130 16 -14 13 -16 47 -16 220 0
128 4 213 11 225 10 19 19 20 143 17 124 -3 135 -5 173 -30z m1013 12 c6 -12
8 -30 5 -40 -7 -24 -52 -37 -74 -23 -20 13 -26 50 -11 69 19 21 67 18 80 -6z
m-600 -129 c39 -20 80 -83 80 -123 0 -50 -20 -58 -142 -58 l-110 0 7 -27 c20
-80 93 -90 175 -23 47 38 81 -5 45 -56 -51 -74 -231 -70 -285 5 -65 92 -38
240 52 284 45 23 135 22 178 -2z m370 1 c42 -20 63 -57 49 -84 -14 -27 -47
-22 -87 13 -28 25 -41 30 -66 25 -64 -13 -61 -49 6 -66 122 -31 168 -62 168
-112 0 -75 -56 -118 -155 -118 -67 0 -118 19 -140 54 -43 65 19 105 72 47 36
-40 81 -49 113 -23 37 30 20 48 -73 76 -46 14 -91 34 -99 43 -41 45 -26 117
30 147 38 21 139 20 182 -2z m230 -1 c5 -11 10 -82 10 -158 0 -109 -3 -143
-16 -161 -17 -24 -53 -29 -72 -10 -17 17 -17 319 0 336 19 19 66 15 78 -7z
m167 -1 c7 -24 5 -24 45 0 40 24 114 26 146 4 42 -29 52 -65 52 -189 0 -127
-8 -155 -45 -155 -43 0 -55 33 -55 152 0 133 -16 158 -83 127 -37 -17 -47 -50
-47 -158 0 -106 -8 -125 -52 -119 -41 6 -49 41 -46 193 2 77 7 146 11 153 14
21 68 15 74 -8z m539 -5 l32 -24 6 24 c5 20 13 25 36 25 47 0 52 -21 48 -220
-3 -199 -9 -217 -79 -252 -102 -52 -298 10 -259 82 15 29 55 25 85 -7 20 -23
34 -28 71 -28 55 0 84 28 84 81 l0 34 -32 -20 c-69 -42 -159 -18 -199 53 -30
53 -33 154 -6 205 39 72 148 97 213 47z"/>
<path d="M3157 4666 c-257 -161 -542 -429 -710 -667 -94 -133 -153 -279 -114
-279 40 0 255 160 398 297 92 88 227 246 314 368 71 100 209 325 202 331 -2 2
-42 -20 -90 -50z"/>
<path d="M5703 2570 c-46 -19 -67 -106 -40 -160 15 -31 60 -54 87 -45 12 4 30
16 40 28 27 28 28 125 3 155 -21 25 -60 35 -90 22z"/>
<path d="M3553 2447 c-53 -15 -67 -29 -59 -60 7 -30 42 -41 85 -26 35 12 51
35 51 73 0 29 -10 31 -77 13z"/>
<path d="M5293 2578 c-17 -8 -43 -53 -43 -74 0 -2 35 -4 79 -4 l78 0 -5 25
c-5 28 -46 65 -71 64 -9 0 -26 -5 -38 -11z"/>
<path d="M3490 1741 l0 -161 48 1 c112 1 152 44 152 162 0 73 -17 119 -50 137
-11 6 -49 13 -85 17 l-65 6 0 -162z"/>
<path d="M3993 1778 c-17 -8 -43 -53 -43 -74 0 -2 35 -4 79 -4 l78 0 -5 25
c-5 28 -46 65 -71 64 -9 0 -26 -5 -38 -11z"/>
<path d="M5334 1768 c-65 -31 -54 -171 15 -193 23 -7 70 11 87 33 17 22 17
112 1 133 -15 19 -51 39 -69 38 -7 0 -23 -5 -34 -11z"/>
</g>
</svg>
